<svg xmlns="http://www.w3.org/2000/svg" width="1200" height="760" viewBox="0 0 1200 760" role="img" aria-labelledby="title desc">
  <title id="title">Enterprise RAG interface preview</title>
  <desc id="desc">A product screenshot placeholder showing document retrieval, citations, and quality panels.</desc>
  <rect width="1200" height="760" fill="#e8eef5"/>
  <rect x="42" y="44" width="1116" height="672" rx="18" fill="#ffffff" stroke="#cbd5e1"/>
  <rect x="42" y="44" width="1116" height="70" rx="18" fill="#18212f"/>
  <circle cx="90" cy="79" r="11" fill="#ef6b73"/>
  <circle cx="126" cy="79" r="11" fill="#e8b24a"/>
  <circle cx="162" cy="79" r="11" fill="#4ca67a"/>
  <text x="206" y="86" font-family="Arial, sans-serif" font-size="24" font-weight="700" fill="#ffffff">Enterprise RAG Platform</text>
  <rect x="80" y="154" width="250" height="522" rx="14" fill="#f3f6fa" stroke="#d8dee8"/>
  <text x="108" y="195" font-family="Arial, sans-serif" font-size="22" font-weight="700" fill="#18212f">Documents</text>
  <rect x="108" y="228" width="190" height="18" rx="9" fill="#255c99"/>
  <rect x="108" y="268" width="150" height="14" rx="7" fill="#9aa8ba"/>
  <rect x="108" y="304" width="174" height="14" rx="7" fill="#9aa8ba"/>
  <rect x="108" y="340" width="132" height="14" rx="7" fill="#9aa8ba"/>
  <rect x="108" y="400" width="182" height="74" rx="10" fill="#ffffff" stroke="#d8dee8"/>
  <text x="126" y="445" font-family="Arial, sans-serif" font-size="17" fill="#5b6678">Entity ACL</text>
  <rect x="364" y="154" width="456" height="522" rx="14" fill="#ffffff" stroke="#d8dee8"/>
  <text x="392" y="195" font-family="Arial, sans-serif" font-size="24" font-weight="700" fill="#18212f">Citation-grounded answer</text>
  <rect x="392" y="232" width="354" height="18" rx="9" fill="#9aa8ba"/>
  <rect x="392" y="272" width="390" height="18" rx="9" fill="#9aa8ba"/>
  <rect x="392" y="312" width="318" height="18" rx="9" fill="#9aa8ba"/>
  <rect x="392" y="374" width="362" height="86" rx="12" fill="#f3f6fa" stroke="#d8dee8"/>
  <rect x="416" y="402" width="54" height="30" rx="8" fill="#0f766e"/>
  <rect x="486" y="402" width="178" height="14" rx="7" fill="#5b6678"/>
  <rect x="486" y="426" width="220" height="12" rx="6" fill="#9aa8ba"/>
  <rect x="392" y="506" width="354" height="74" rx="12" fill="#fff7ed" stroke="#f1c27d"/>
  <text x="418" y="550" font-family="Arial, sans-serif" font-size="19" fill="#9a5b00">Strict evidence refusal path</text>
  <rect x="854" y="154" width="264" height="522" rx="14" fill="#f3f6fa" stroke="#d8dee8"/>
  <text x="882" y="195" font-family="Arial, sans-serif" font-size="22" font-weight="700" fill="#18212f">Retrieval trace</text>
  <rect x="882" y="236" width="188" height="72" rx="10" fill="#ffffff" stroke="#d8dee8"/>
  <rect x="882" y="336" width="188" height="72" rx="10" fill="#ffffff" stroke="#d8dee8"/>
  <rect x="882" y="436" width="188" height="72" rx="10" fill="#ffffff" stroke="#d8dee8"/>
  <rect x="910" y="260" width="132" height="14" rx="7" fill="#255c99"/>
  <rect x="910" y="360" width="102" height="14" rx="7" fill="#0f766e"/>
  <rect x="910" y="460" width="152" height="14" rx="7" fill="#9a5b00"/>
</svg>
