<svg xmlns="http://www.w3.org/2000/svg" width="1200" height="760" viewBox="0 0 1200 760" role="img" aria-labelledby="title desc">
  <title id="title">NL2SQL data agent interface preview</title>
  <desc id="desc">A product screenshot placeholder showing query generation, SQL guard, and chart output.</desc>
  <rect width="1200" height="760" fill="#eaf1ef"/>
  <rect x="42" y="44" width="1116" height="672" rx="18" fill="#ffffff" stroke="#cbd5e1"/>
  <rect x="42" y="44" width="1116" height="70" rx="18" fill="#1b2b2f"/>
  <text x="82" y="86" font-family="Arial, sans-serif" font-size="24" font-weight="700" fill="#ffffff">Industrial NL2SQL Data Agent</text>
  <rect x="82" y="154" width="414" height="522" rx="14" fill="#f3f6fa" stroke="#d8dee8"/>
  <text x="110" y="196" font-family="Arial, sans-serif" font-size="22" font-weight="700" fill="#18212f">Business question</text>
  <rect x="110" y="232" width="316" height="58" rx="12" fill="#ffffff" stroke="#d8dee8"/>
  <rect x="132" y="254" width="250" height="16" rx="8" fill="#5b6678"/>
  <text x="110" y="346" font-family="Arial, sans-serif" font-size="22" font-weight="700" fill="#18212f">Guarded SQL</text>
  <rect x="110" y="382" width="338" height="160" rx="12" fill="#18212f"/>
  <rect x="134" y="414" width="188" height="12" rx="6" fill="#7dd3fc"/>
  <rect x="134" y="444" width="260" height="12" rx="6" fill="#a7f3d0"/>
  <rect x="134" y="474" width="222" height="12" rx="6" fill="#fde68a"/>
  <rect x="134" y="504" width="156" height="12" rx="6" fill="#c4b5fd"/>
  <rect x="534" y="154" width="270" height="522" rx="14" fill="#ffffff" stroke="#d8dee8"/>
  <text x="562" y="196" font-family="Arial, sans-serif" font-size="22" font-weight="700" fill="#18212f">Safety path</text>
  <rect x="564" y="238" width="170" height="44" rx="22" fill="#0f766e"/>
  <text x="600" y="267" font-family="Arial, sans-serif" font-size="16" font-weight="700" fill="#ffffff">SELECT only</text>
  <rect x="564" y="316" width="200" height="44" rx="22" fill="#255c99"/>
  <text x="598" y="345" font-family="Arial, sans-serif" font-size="16" font-weight="700" fill="#ffffff">Scope checks</text>
  <rect x="564" y="394" width="176" height="44" rx="22" fill="#9a5b00"/>
  <text x="596" y="423" font-family="Arial, sans-serif" font-size="16" font-weight="700" fill="#ffffff">Repair loop</text>
  <rect x="564" y="472" width="214" height="44" rx="22" fill="#18212f"/>
  <text x="598" y="501" font-family="Arial, sans-serif" font-size="16" font-weight="700" fill="#ffffff">Chart choice</text>
  <rect x="842" y="154" width="276" height="522" rx="14" fill="#f3f6fa" stroke="#d8dee8"/>
  <text x="870" y="196" font-family="Arial, sans-serif" font-size="22" font-weight="700" fill="#18212f">Result chart</text>
  <rect x="884" y="512" width="32" height="82" rx="6" fill="#255c99"/>
  <rect x="932" y="444" width="32" height="150" rx="6" fill="#0f766e"/>
  <rect x="980" y="384" width="32" height="210" rx="6" fill="#9a5b00"/>
  <rect x="1028" y="324" width="32" height="270" rx="6" fill="#193f69"/>
  <line x1="870" y1="594" x2="1088" y2="594" stroke="#5b6678" stroke-width="4"/>
  <rect x="870" y="238" width="198" height="18" rx="9" fill="#5b6678"/>
  <rect x="870" y="278" width="160" height="14" rx="7" fill="#9aa8ba"/>
</svg>
